<svg width="512" height="512" viewBox="0 0 512 512" fill="none" xmlns="http://www.w3.org/2000/svg">
<g clip-path="url(#clip0_4398_50)">
<path d="M230.936 13.0013C178.543 13.0013 131.917 46.325 114.868 95.7777C114.394 97.1516 114.051 98.5707 113.806 100.003L108.672 130.088C108.387 131.755 108.244 133.444 108.244 135.135V247.746C108.244 253.504 111.195 258.618 116.132 261.578L163.548 288.983C183.548 300.543 208.56 286.11 208.56 263.01V156.773C208.56 156.766 208.566 156.76 208.574 156.76V156.76C208.581 156.76 208.587 156.754 208.587 156.746V151.997C208.587 150.298 209.492 148.727 210.962 147.875L302.142 95.0528C303.473 94.2799 304.821 93.5431 306.186 92.8424C318.816 86.3559 327.759 72.4771 323.755 58.8544V58.8544C322.756 55.4544 321.04 52.2916 318.567 49.7534C295.573 26.1551 263.966 12.8482 230.936 13.0013ZM230.821 44.6219C230.863 44.6218 230.885 44.6727 230.856 44.7025V44.7025C230.826 44.7323 230.847 44.7832 230.889 44.7832C251.104 44.8081 270.571 51.4471 286.521 63.7675C287.773 64.734 287.618 66.8141 286.205 67.5229V67.5229L189.484 123.39C184.548 126.189 181.596 131.463 181.596 137.222V232.297C181.596 248.319 164.247 258.329 150.376 250.309V250.309C143.945 246.591 139.984 239.726 139.984 232.297V135.904C139.957 85.5918 180.596 44.7646 230.821 44.6219Z" fill="white"/>
<path d="M453.275 112.229C427.087 66.8698 375.021 43.1079 323.815 52.9864C322.384 53.2625 320.979 53.6746 319.613 54.1798L291.103 64.7178C289.512 65.3059 287.974 66.028 286.505 66.8762L189.313 122.99C184.342 125.86 181.404 130.963 181.316 136.713L181.362 191.451C181.381 214.534 206.371 228.948 226.362 217.406L317.986 164.507C317.993 164.503 318.001 164.506 318.005 164.512V164.512C318.008 164.518 318.017 164.521 318.023 164.517L322.121 162.151C323.588 161.304 325.397 161.304 326.865 162.151L418.043 214.772C419.394 215.55 420.723 216.362 422.028 217.207C433.903 224.899 450.34 225.696 460.092 215.446V215.446C462.528 212.886 464.4 209.825 465.354 206.422C474.232 174.751 469.919 140.752 453.275 112.229ZM425.923 127.889C425.944 127.925 425.911 127.969 425.871 127.958V127.958C425.83 127.947 425.797 127.991 425.818 128.027C435.901 145.542 439.901 165.704 437.24 185.655C437.031 187.218 435.156 188.123 433.84 187.254V187.254L337.267 131.354C332.383 128.474 326.355 128.548 321.384 131.418L239.363 178.773C225.501 186.776 208.172 176.779 208.161 160.773V160.773C208.156 153.336 212.121 146.462 218.562 142.744L301.721 94.7317C345.137 69.6347 400.693 84.4735 425.923 127.889Z" fill="white"/>
<path d="M478.935 354.685C505.124 309.326 499.669 252.354 465.511 212.948C464.556 211.846 463.497 210.836 462.376 209.905L438.996 190.484C437.691 189.4 436.296 188.429 434.827 187.581L337.636 131.467C332.664 128.597 326.776 128.604 321.753 131.403L274.371 158.812C254.39 170.37 254.402 199.219 274.392 210.761L366.017 263.66C366.023 263.664 366.026 263.672 366.022 263.679V263.679C366.018 263.685 366.02 263.693 366.027 263.697L370.124 266.063C371.592 266.91 372.496 268.476 372.497 270.171L372.514 375.444C372.516 377.004 372.477 378.56 372.398 380.113C371.675 394.243 379.202 408.876 392.956 412.197V412.197C396.391 413.026 399.978 413.117 403.401 412.242C435.268 404.095 462.556 383.361 478.935 354.685ZM451.698 338.827C451.677 338.863 451.622 338.857 451.611 338.816V338.816C451.6 338.776 451.546 338.769 451.525 338.805C441.399 356.294 425.938 369.84 407.33 377.511C405.871 378.112 404.15 376.94 404.245 375.366V375.366L404.369 263.781C404.421 258.112 401.343 252.928 396.372 250.058L314.351 202.703C300.489 194.7 300.482 174.695 314.338 166.682V166.682C320.776 162.959 328.712 162.956 335.152 166.674L418.311 214.686C461.754 239.737 476.681 295.27 451.698 338.827Z" fill="white"/>
<path d="M281.552 497.999C333.941 497.999 380.564 464.791 397.616 415.509C398.093 414.131 398.438 412.708 398.684 411.272L403.814 381.316C404.1 379.643 404.244 377.949 404.244 376.252L404.244 264.032C404.244 258.292 401.293 253.196 396.356 250.245L348.903 222.909C328.903 211.388 303.928 225.823 303.928 248.904V354.703C303.928 354.71 303.922 354.716 303.915 354.716V354.716C303.907 354.716 303.901 354.722 303.901 354.73V359.461C303.901 361.156 302.997 362.722 301.529 363.569L210.346 416.219C208.994 417.001 207.625 417.747 206.238 418.455C193.639 424.891 184.731 438.726 188.733 452.296V452.296C189.732 455.686 191.447 458.837 193.918 461.364C216.912 484.887 248.52 498.151 281.552 497.999ZM281.667 466.483C281.625 466.483 281.603 466.432 281.633 466.402V466.402C281.662 466.373 281.641 466.322 281.599 466.322C261.385 466.297 241.919 459.681 225.968 447.402C224.718 446.439 224.872 444.363 226.283 443.658V443.658L323.004 387.976C327.941 385.186 330.892 379.929 330.892 374.189V279.489C330.892 263.48 348.215 253.469 362.086 261.462V261.462C368.532 265.176 372.505 272.05 372.505 279.489V375.503C372.531 425.649 331.892 466.341 281.667 466.483Z" fill="white"/>
<path d="M33.3322 156.691C7.14396 202.05 12.5986 259.022 46.7567 298.428C47.7111 299.529 48.7704 300.54 49.8913 301.471L73.2721 320.892C74.577 321.976 75.9716 322.947 77.4407 323.795L174.632 379.909C179.603 382.779 185.492 382.772 190.515 379.973L237.897 352.564C257.878 341.006 257.866 312.157 237.875 300.615L146.251 247.716C146.244 247.712 146.242 247.704 146.246 247.697V247.697C146.249 247.691 146.247 247.683 146.241 247.679L142.143 245.313C140.675 244.466 139.771 242.9 139.771 241.205L139.753 135.932C139.751 134.372 139.79 132.816 139.87 131.263C140.593 117.133 133.066 102.5 119.312 99.179V99.179C115.877 98.3496 112.29 98.2587 108.866 99.134C76.9998 107.281 49.712 128.015 33.3322 156.691ZM60.5698 172.549C60.5907 172.513 60.6455 172.519 60.6563 172.56V172.56C60.6672 172.6 60.7217 172.607 60.7427 172.571C70.8689 155.081 86.3301 141.536 104.938 133.865C106.396 133.264 108.117 134.436 108.023 136.01V136.01L107.899 247.595C107.847 253.264 110.925 258.448 115.896 261.318L197.917 308.673C211.779 316.676 211.786 336.681 197.929 344.694V344.694C191.492 348.417 183.556 348.42 177.115 344.702L93.9561 296.69C50.5136 271.639 35.5861 216.106 60.5698 172.549Z" fill="white"/>
</g>
<defs>
<clipPath id="clip0_4398_50">
<rect width="512" height="512" fill="white"/>
</clipPath>
</defs>
</svg>
